<svg width="40" height="40" viewBox="0 0 40 40" fill="none" xmlns="http://www.w3.org/2000/svg">
<path fill-rule="evenodd" clip-rule="evenodd" d="M12.7523 14.2065C12.7439 13.9478 12.7377 13.686 12.7366 13.4193C12.7209 6.1819 18.2281 3.96875 21.9274 3.29746C21.306 3.10116 20.6542 3 19.9909 3C19.3277 3 18.7104 3.09717 18.1036 3.28259C17.5606 3.44918 17.0407 3.68715 16.5573 3.99551C14.9964 4.99204 11.8672 6.75007 8.47024 7.32714C6.45736 7.66825 5 9.31818 5 11.2497V19.2625C5 21.7919 5.71455 24.2599 7.12273 26.6059C8.77468 28.0209 14.3226 32.1527 19.2607 28.705C19.2744 28.6955 19.2882 28.6861 19.302 28.6767C19.3198 28.6646 19.3377 28.6524 19.3559 28.6396C19.5149 28.5256 19.6708 28.4096 19.8236 28.2935C19.131 27.8722 13.0861 23.9158 12.7534 14.2065H12.7523ZM33.5908 23.7471C33.5921 24.5287 33.4499 25.3361 33.1217 26.1597C34.3573 23.9486 34.985 21.6333 34.985 19.2635V11.2497C34.985 9.38462 33.626 7.78226 31.7209 7.36781L31.5148 7.32813C28.1188 6.75007 24.9886 4.99304 23.4277 3.99651C22.959 3.69805 22.4557 3.46505 21.9295 3.29846C18.2302 3.96975 12.7241 6.1829 12.7387 13.4203C12.7387 13.687 12.745 13.9488 12.7544 14.2075L20.2158 11.4411L27.058 14.3846C27.058 14.3847 27.058 14.3849 27.058 14.385C26.6929 19.3458 25.0713 24.3095 19.8235 28.2945C19.6708 28.4106 19.5149 28.5256 19.3559 28.6406C19.3285 28.6605 19.3011 28.6789 19.2731 28.6977L19.2607 28.706C14.3226 32.1537 8.77573 28.0219 7.12273 26.6069C7.1876 26.716 7.2535 26.8241 7.32152 26.9331C7.60294 27.3793 7.91052 27.8196 8.24112 28.2559C9.32915 29.6877 10.6829 31.064 12.2857 32.3609C15.749 35.1641 19.1818 36.6436 19.413 36.7432L19.4208 36.7466L19.9899 36.9855L20.5611 36.7466L20.562 36.7462C20.7207 36.6785 24.1928 35.1973 27.6961 32.3609C29.7739 30.6782 31.4373 28.8627 32.6426 26.9639L32.6501 26.9525C32.6543 26.9463 32.6585 26.9399 32.6624 26.9331C32.8236 26.6773 32.9752 26.4195 33.1196 26.1597C33.443 25.3481 33.5866 24.5398 33.5908 23.7471Z" fill="url(#paint0_linear_2899_8957)"/>
<path fill-rule="evenodd" clip-rule="evenodd" d="M27.0578 14.385C26.6927 19.3457 25.0711 24.3095 19.8233 28.2945C19.6706 28.4106 19.5147 28.5256 19.3557 28.6406C19.3243 28.6634 19.2929 28.6842 19.2605 28.706C14.3225 32.1537 8.77555 28.0219 7.12256 26.6069C7.18743 26.716 7.25332 26.824 7.32134 26.9331C7.60276 27.3793 7.91035 27.8196 8.24095 28.2559C9.32897 29.6877 10.6828 31.0639 12.2855 32.3609C15.7965 35.2027 19.2762 36.6841 19.4206 36.7465L19.9897 36.9855L20.5609 36.7465C20.7074 36.6841 24.186 35.2027 27.696 32.3609C29.7737 30.6782 31.4372 28.8627 32.6424 26.9639C32.6487 26.9539 32.656 26.944 32.6623 26.9331C32.8234 26.6773 32.9751 26.4195 33.1194 26.1597C33.437 25.3629 33.5811 24.5693 33.5903 23.7905C33.6175 18.5022 27.0578 14.385 27.0578 14.385" fill="url(#paint1_linear_2899_8957)"/>
<path fill-rule="evenodd" clip-rule="evenodd" d="M12.7523 14.2065C12.7439 13.9478 12.7377 13.686 12.7366 13.4193C12.7209 6.1819 18.2281 3.96875 21.9274 3.29746C21.306 3.10116 20.6542 3 19.9909 3C19.3277 3 18.7104 3.09717 18.1036 3.28259C17.5606 3.44918 17.0407 3.68715 16.5573 3.99551C14.9964 4.99204 11.8672 6.75007 8.47024 7.32713C6.45736 7.66825 5 9.31818 5 11.2497V19.2625C5 21.7919 5.71455 24.2599 7.12273 26.6059C8.77468 28.0209 14.3226 32.1527 19.2607 28.705C19.2921 28.6832 19.3235 28.6624 19.3559 28.6396C19.5149 28.5256 19.6708 28.4096 19.8236 28.2935C19.131 27.8722 13.0861 23.9158 12.7534 14.2065H12.7523Z" fill="url(#paint2_linear_2899_8957)"/>
<path fill-rule="evenodd" clip-rule="evenodd" d="M31.721 7.36781L31.5149 7.32816C28.1189 6.75007 24.9887 4.99304 23.4278 3.99654C22.9591 3.69808 22.4559 3.46505 21.9296 3.29846C18.2303 3.96975 12.7242 6.1829 12.7388 13.4203C12.7388 13.687 12.7451 13.9488 12.7545 14.2075L20.216 11.4411L27.0581 14.3846L27.0591 14.385H27.0581C27.0581 14.385 33.6177 18.5022 33.5905 23.7905C33.5866 24.5586 33.444 25.3513 33.1218 26.1597C34.3574 23.9486 34.9851 21.6333 34.9851 19.2635V11.2497C34.9851 9.38465 33.6261 7.78229 31.721 7.36781" fill="url(#paint3_linear_2899_8957)"/>
<defs>
<linearGradient id="paint0_linear_2899_8957" x1="5" y1="3" x2="5" y2="36.9855" gradientUnits="userSpaceOnUse">
<stop stop-color="#28D13E"/>
<stop offset="0.297201" stop-color="#4DDF95"/>
<stop offset="0.602391" stop-color="#16ABD8"/>
<stop offset="1" stop-color="#1671D8"/>
<stop offset="1" stop-color="#1671D8"/>
<stop offset="1" stop-color="#1671D8"/>
</linearGradient>
<linearGradient id="paint1_linear_2899_8957" x1="15.4343" y1="0.0343632" x2="1.58122" y2="31.1452" gradientUnits="userSpaceOnUse">
<stop stop-color="#0F6078"/>
<stop offset="1" stop-color="#00FFFF" stop-opacity="0.01"/>
</linearGradient>
<linearGradient id="paint2_linear_2899_8957" x1="2.86851" y1="3" x2="2.86851" y2="36.8552" gradientUnits="userSpaceOnUse">
<stop stop-color="#28D13E"/>
<stop offset="1" stop-color="#1671D8"/>
</linearGradient>
<linearGradient id="paint3_linear_2899_8957" x1="15.125" y1="9.87233" x2="30.1128" y2="27.9268" gradientUnits="userSpaceOnUse">
<stop stop-color="#23A635"/>
<stop offset="1" stop-color="#1671D8" stop-opacity="0.01"/>
</linearGradient>
</defs>
</svg>
